<svg fill="#ffffff" version="1.1" id="Capa_1" xmlns="http://www.w3.org/2000/svg" xmlns:xlink="http://www.w3.org/1999/xlink" viewBox="0 0 350 350" xml:space="preserve" stroke="#ffffff" stroke-width="0.0035000000000000005"><g id="SVGRepo_bgCarrier" stroke-width="0"></g><g id="SVGRepo_tracerCarrier" stroke-linecap="round" stroke-linejoin="round" stroke="#e19898" stroke-width="14.7"> <g> <g> <polygon points="40,310 40,0 0,0 0,350 350,350 350,310 "></polygon> <polygon points="211.232,145.228 264.046,220.807 245.774,233.575 315.143,266.002 308.548,189.709 290.276,202.477 220.604,102.772 146.016,146.113 90.588,74.229 65.247,93.771 137.819,187.887 "></polygon> </g> </g> </g><g id="SVGRepo_iconCarrier"> <g> <g> <polygon points="40,310 40,0 0,0 0,350 350,350 350,310 "></polygon> <polygon points="211.232,145.228 264.046,220.807 245.774,233.575 315.143,266.002 308.548,189.709 290.276,202.477 220.604,102.772 146.016,146.113 90.588,74.229 65.247,93.771 137.819,187.887 "></polygon> </g> </g> </g></svg>